<mxfile host="app.diagrams.net" modified="2023-08-27T00:13:44.210Z" agent="Mozilla/5.0 (Windows NT 10.0; Win64; x64) AppleWebKit/537.36 (KHTML, like Gecko) Chrome/116.0.0.0 Safari/537.36" etag="kJZeL60plpmBREfWUvyH" version="21.6.8" type="device">
  <diagram name="Page-1" id="2CI0uY7ae3qAQ0rnxeTq">
    <mxGraphModel dx="965" dy="533" grid="1" gridSize="10" guides="1" tooltips="1" connect="1" arrows="1" fold="1" page="1" pageScale="1" pageWidth="850" pageHeight="1100" math="0" shadow="0">
      <root>
        <mxCell id="0" />
        <mxCell id="1" parent="0" />
        <mxCell id="McWadiBmeLITpTtvkjrf-4" style="edgeStyle=orthogonalEdgeStyle;rounded=0;orthogonalLoop=1;jettySize=auto;html=1;entryX=0;entryY=0.5;entryDx=0;entryDy=0;exitX=0.5;exitY=1;exitDx=0;exitDy=0;fillColor=#60a917;strokeColor=#2D7600;" parent="1" source="McWadiBmeLITpTtvkjrf-1" target="McWadiBmeLITpTtvkjrf-3" edge="1">
          <mxGeometry relative="1" as="geometry" />
        </mxCell>
        <mxCell id="McWadiBmeLITpTtvkjrf-1" value="input text box" style="rounded=0;whiteSpace=wrap;html=1;" parent="1" vertex="1">
          <mxGeometry x="40" y="190" width="120" height="60" as="geometry" />
        </mxCell>
        <mxCell id="McWadiBmeLITpTtvkjrf-7" style="edgeStyle=orthogonalEdgeStyle;rounded=0;orthogonalLoop=1;jettySize=auto;html=1;fillColor=#60a917;strokeColor=#2D7600;" parent="1" source="McWadiBmeLITpTtvkjrf-3" edge="1">
          <mxGeometry relative="1" as="geometry">
            <mxPoint x="600" y="340" as="targetPoint" />
          </mxGeometry>
        </mxCell>
        <mxCell id="McWadiBmeLITpTtvkjrf-23" style="edgeStyle=orthogonalEdgeStyle;rounded=0;orthogonalLoop=1;jettySize=auto;html=1;entryX=0.5;entryY=1;entryDx=0;entryDy=0;fillColor=#1ba1e2;strokeColor=#006EAF;" parent="1" source="McWadiBmeLITpTtvkjrf-3" target="McWadiBmeLITpTtvkjrf-22" edge="1">
          <mxGeometry relative="1" as="geometry" />
        </mxCell>
        <mxCell id="McWadiBmeLITpTtvkjrf-3" value="submitForm(event) in html file" style="rounded=0;whiteSpace=wrap;html=1;" parent="1" vertex="1">
          <mxGeometry x="300" y="310" width="120" height="60" as="geometry" />
        </mxCell>
        <mxCell id="McWadiBmeLITpTtvkjrf-5" value="on entering statement and clicking submit" style="text;html=1;align=center;verticalAlign=middle;resizable=0;points=[];autosize=1;strokeColor=none;fillColor=none;" parent="1" vertex="1">
          <mxGeometry y="278" width="240" height="30" as="geometry" />
        </mxCell>
        <mxCell id="McWadiBmeLITpTtvkjrf-6" value="statement" style="text;html=1;strokeColor=none;fillColor=none;align=center;verticalAlign=middle;whiteSpace=wrap;rounded=0;" parent="1" vertex="1">
          <mxGeometry x="190" y="340" width="60" height="30" as="geometry" />
        </mxCell>
        <mxCell id="McWadiBmeLITpTtvkjrf-11" value="" style="edgeStyle=orthogonalEdgeStyle;rounded=0;orthogonalLoop=1;jettySize=auto;html=1;fillColor=#60a917;strokeColor=#2D7600;" parent="1" source="McWadiBmeLITpTtvkjrf-8" target="McWadiBmeLITpTtvkjrf-10" edge="1">
          <mxGeometry relative="1" as="geometry" />
        </mxCell>
        <mxCell id="japXFdPTbTUFqkmsHSgS-4" style="edgeStyle=orthogonalEdgeStyle;rounded=0;orthogonalLoop=1;jettySize=auto;html=1;exitX=0.75;exitY=1;exitDx=0;exitDy=0;entryX=0.994;entryY=0.886;entryDx=0;entryDy=0;entryPerimeter=0;" edge="1" parent="1" source="McWadiBmeLITpTtvkjrf-8" target="japXFdPTbTUFqkmsHSgS-1">
          <mxGeometry relative="1" as="geometry" />
        </mxCell>
        <mxCell id="McWadiBmeLITpTtvkjrf-8" value="FASTApi input_analysis(str)&lt;br&gt;POST method&lt;br&gt;+&amp;nbsp;&lt;br&gt;parseAmount" style="rounded=0;whiteSpace=wrap;html=1;" parent="1" vertex="1">
          <mxGeometry x="600" y="310" width="120" height="110" as="geometry" />
        </mxCell>
        <mxCell id="McWadiBmeLITpTtvkjrf-9" value="fetch POST request" style="text;html=1;align=center;verticalAlign=middle;resizable=0;points=[];autosize=1;strokeColor=none;fillColor=none;" parent="1" vertex="1">
          <mxGeometry x="440" y="308" width="130" height="30" as="geometry" />
        </mxCell>
        <mxCell id="McWadiBmeLITpTtvkjrf-14" style="edgeStyle=orthogonalEdgeStyle;rounded=0;orthogonalLoop=1;jettySize=auto;html=1;exitX=0.75;exitY=1;exitDx=0;exitDy=0;entryX=0.75;entryY=0;entryDx=0;entryDy=0;fillColor=#1ba1e2;strokeColor=#006EAF;" parent="1" source="McWadiBmeLITpTtvkjrf-10" target="McWadiBmeLITpTtvkjrf-8" edge="1">
          <mxGeometry relative="1" as="geometry" />
        </mxCell>
        <mxCell id="McWadiBmeLITpTtvkjrf-10" value="model file" style="whiteSpace=wrap;html=1;rounded=0;" parent="1" vertex="1">
          <mxGeometry x="600" y="150" width="120" height="60" as="geometry" />
        </mxCell>
        <mxCell id="McWadiBmeLITpTtvkjrf-12" value="string" style="text;html=1;align=center;verticalAlign=middle;resizable=0;points=[];autosize=1;strokeColor=none;fillColor=none;" parent="1" vertex="1">
          <mxGeometry x="610" y="258" width="50" height="30" as="geometry" />
        </mxCell>
        <mxCell id="McWadiBmeLITpTtvkjrf-15" value="categorization&lt;br&gt;&amp;nbsp;of statement" style="text;html=1;align=center;verticalAlign=middle;resizable=0;points=[];autosize=1;strokeColor=none;fillColor=none;" parent="1" vertex="1">
          <mxGeometry x="690" y="248" width="100" height="40" as="geometry" />
        </mxCell>
        <mxCell id="McWadiBmeLITpTtvkjrf-19" value="" style="endArrow=classic;html=1;rounded=0;exitX=-0.041;exitY=0.861;exitDx=0;exitDy=0;entryX=1;entryY=1;entryDx=0;entryDy=0;exitPerimeter=0;fillColor=#1ba1e2;strokeColor=#006EAF;" parent="1" source="McWadiBmeLITpTtvkjrf-8" target="McWadiBmeLITpTtvkjrf-3" edge="1">
          <mxGeometry width="50" height="50" relative="1" as="geometry">
            <mxPoint x="400" y="300" as="sourcePoint" />
            <mxPoint x="450" y="250" as="targetPoint" />
            <Array as="points">
              <mxPoint x="490" y="405" />
            </Array>
          </mxGeometry>
        </mxCell>
        <mxCell id="McWadiBmeLITpTtvkjrf-20" value="Json having log, amount, categorization" style="text;html=1;align=center;verticalAlign=middle;resizable=0;points=[];autosize=1;strokeColor=none;fillColor=none;" parent="1" vertex="1">
          <mxGeometry x="360" y="410" width="230" height="30" as="geometry" />
        </mxCell>
        <mxCell id="McWadiBmeLITpTtvkjrf-22" value="responseArea" style="rounded=0;whiteSpace=wrap;html=1;" parent="1" vertex="1">
          <mxGeometry x="300" y="60" width="120" height="60" as="geometry" />
        </mxCell>
        <mxCell id="McWadiBmeLITpTtvkjrf-24" value="Populated a table with the json received" style="text;html=1;align=center;verticalAlign=middle;resizable=0;points=[];autosize=1;strokeColor=none;fillColor=none;" parent="1" vertex="1">
          <mxGeometry x="260" y="188" width="240" height="30" as="geometry" />
        </mxCell>
        <mxCell id="McWadiBmeLITpTtvkjrf-25" value="Start" style="text;html=1;strokeColor=#2D7600;fillColor=#60a917;align=center;verticalAlign=middle;whiteSpace=wrap;rounded=0;fontStyle=1;fontColor=#ffffff;" parent="1" vertex="1">
          <mxGeometry x="70" y="150" width="60" height="30" as="geometry" />
        </mxCell>
        <mxCell id="McWadiBmeLITpTtvkjrf-26" value="End" style="text;html=1;strokeColor=#006EAF;fillColor=#1ba1e2;align=center;verticalAlign=middle;whiteSpace=wrap;rounded=0;fontStyle=1;fontColor=#ffffff;" parent="1" vertex="1">
          <mxGeometry x="330" y="20" width="60" height="30" as="geometry" />
        </mxCell>
        <mxCell id="japXFdPTbTUFqkmsHSgS-2" style="edgeStyle=orthogonalEdgeStyle;rounded=0;orthogonalLoop=1;jettySize=auto;html=1;exitX=1;exitY=0.5;exitDx=0;exitDy=0;entryX=0.575;entryY=1.032;entryDx=0;entryDy=0;entryPerimeter=0;" edge="1" parent="1" source="japXFdPTbTUFqkmsHSgS-1" target="McWadiBmeLITpTtvkjrf-8">
          <mxGeometry relative="1" as="geometry" />
        </mxCell>
        <mxCell id="japXFdPTbTUFqkmsHSgS-1" value="Telegram chatbot" style="rounded=0;whiteSpace=wrap;html=1;" vertex="1" parent="1">
          <mxGeometry x="90" y="470" width="130" height="70" as="geometry" />
        </mxCell>
        <mxCell id="japXFdPTbTUFqkmsHSgS-3" value="Financial statement" style="text;html=1;align=center;verticalAlign=middle;resizable=0;points=[];autosize=1;strokeColor=none;fillColor=none;" vertex="1" parent="1">
          <mxGeometry x="270" y="470" width="130" height="30" as="geometry" />
        </mxCell>
        <mxCell id="japXFdPTbTUFqkmsHSgS-5" value="Response" style="text;html=1;align=center;verticalAlign=middle;resizable=0;points=[];autosize=1;strokeColor=none;fillColor=none;" vertex="1" parent="1">
          <mxGeometry x="300" y="528" width="80" height="30" as="geometry" />
        </mxCell>
        <mxCell id="japXFdPTbTUFqkmsHSgS-7" value="New connection" style="text;html=1;strokeColor=none;fillColor=none;align=center;verticalAlign=middle;whiteSpace=wrap;rounded=0;" vertex="1" parent="1">
          <mxGeometry x="70" y="430" width="80" height="40" as="geometry" />
        </mxCell>
      </root>
    </mxGraphModel>
  </diagram>
</mxfile>
